<?xml version="1.0" encoding="UTF-8"?>
<svg width="17px" height="11px" viewBox="0 0 17 11" version="1.1" xmlns="http://www.w3.org/2000/svg" xmlns:xlink="http://www.w3.org/1999/xlink">
    <!-- Generator: Sketch 53.2 (72643) - https://sketchapp.com -->
    <title>ic_direct</title>
    <desc>Created with Sketch.</desc>
    <g id="Symbols" stroke="none" stroke-width="1" fill="none" fill-rule="evenodd">
        <g id="Header" transform="translate(-191.000000, -69.000000)" fill="#FFFFFF">
            <g id="Group" transform="translate(178.000000, 66.000000)">
                <g id="ic_direct" transform="translate(13.000000, 3.000000)">
                    <path d="M13.9544565,10.5721558 C15.3113225,9.21528986 16.1333333,7.40686594 16.1333333,5.35293478 C16.1333333,3.29900362 15.3113225,1.44673913 13.9544565,0.131521739 C13.8733514,0.0504166667 13.7900543,0.00876811594 13.6673007,0.00876811594 C13.5445471,0.00876811594 13.46125,0.0504166667 13.3801449,0.131521739 L12.8058333,0.705833333 C12.6414312,0.870235507 12.6414312,1.11574275 12.8058333,1.28014493 C13.8317029,2.31039855 14.4893116,3.74836957 14.4893116,5.35293478 C14.4893116,6.9575 13.8317029,8.39327899 12.8036413,9.42134058 C12.6392391,9.58574275 12.6392391,9.83125 12.8036413,9.99565217 L13.3779529,10.5699638 C13.459058,10.6510688 13.5423551,10.6927174 13.6651087,10.6927174 C13.7900543,10.6949094 13.915,10.6532609 13.9544565,10.5721558 Z" id="Path"></path>
                    <path d="M12.8452899,5.35293478 C12.8452899,4.20211957 12.3937319,3.21570652 11.6528261,2.47699275 C11.4884239,2.31259058 11.2429167,2.31259058 11.0785145,2.47699275 L10.5042029,3.05130435 C10.3398007,3.21570652 10.3398007,3.46121377 10.5042029,3.62561594 C10.9557609,4.07717391 11.2034601,4.69313406 11.2034601,5.35074275 C11.2034601,6.00835145 10.9163043,6.62431159 10.5042029,7.07586957 C10.3398007,7.24027174 10.3398007,7.48577899 10.5042029,7.65018116 L11.0785145,8.22449275 C11.2429167,8.38889493 11.4884239,8.38889493 11.6528261,8.22449275 C12.3937319,7.49016304 12.8452899,6.50375 12.8452899,5.35293478 Z" id="Path"></path>
                    <circle id="Oval" cx="8.07324275" cy="5.35293478" r="1.73608696"></circle>
                    <path d="M2.46603261,10.6949094 C2.58878623,10.6949094 2.67208333,10.6532609 2.75318841,10.5721558 L3.3275,9.9978442 C3.49190217,9.83344203 3.49190217,9.58793478 3.3275,9.42353261 C2.30163043,8.39327899 1.64402174,6.95530797 1.64402174,5.35293478 C1.64402174,3.75056159 2.30163043,2.31259058 3.32969203,1.28452899 C3.4940942,1.12012681 3.4940942,0.874619565 3.32969203,0.710217391 L2.75318841,0.131521739 C2.67208333,0.0504166667 2.58878623,0.00876811594 2.46603261,0.00876811594 C2.34327899,0.00876811594 2.25998188,0.0504166667 2.17887681,0.131521739 C0.82201087,1.44673913 0,3.29681159 0,5.35293478 C0,7.40905797 0.82201087,9.21528986 2.17887681,10.5721558 C2.21833333,10.6532609 2.34327899,10.6949094 2.46603261,10.6949094 Z" id="Path"></path>
                    <path d="M4.48050725,8.22887681 C4.64490942,8.39327899 4.89041667,8.39327899 5.05481884,8.22887681 L5.62913043,7.65456522 C5.79353261,7.49016304 5.79353261,7.2446558 5.62913043,7.08025362 C5.21922101,6.62869565 4.92987319,6.01273551 4.92987319,5.35512681 C4.92987319,4.69751812 5.17538043,4.08155797 5.62913043,3.63 C5.79353261,3.46559783 5.79353261,3.22009058 5.62913043,3.05568841 L5.05481884,2.48137681 C4.89041667,2.31697464 4.64490942,2.31697464 4.48050725,2.48137681 C3.74179348,3.22009058 3.28804348,4.20650362 3.28804348,5.35731884 C3.28804348,6.50813406 3.73960145,7.49016304 4.48050725,8.22887681 Z" id="Path"></path>
                </g>
            </g>
        </g>
    </g>
</svg>